#tb 0: 1/100
0,          0,          0,        1,      568, 0xe1d43487
0,         10,         10,        1,      142, 0x92d43281, S=1,     1024, 0xc2f67c9f
0,         20,         20,        1,      130, 0x29383852, S=1,     1024, 0xc2f67c9f
0,         30,         30,        1,      129, 0x036732fa, S=1,     1024, 0xc2f67c9f
0,         40,         40,        1,      145, 0xcbc036bb, S=1,     1024, 0xc2f67c9f
0,         50,         50,        1,      135, 0x6e4536d1, S=1,     1024, 0xc2f67c9f
0,         60,         60,        1,      127, 0xe73f2f55, S=1,     1024, 0xc2f67c9f
0,         70,         70,        1,      119, 0x7912307f, S=1,     1024, 0xc2f67c9f
0,         80,         80,        1,      132, 0xce58343c, S=1,     1024, 0xc2f67c9f
0,         90,         90,        1,      126, 0x1fcd2b9c, S=1,     1024, 0xc2f67c9f
0,        100,        100,        1,      127, 0x6c293369, S=1,     1024, 0xc2f67c9f
0,        110,        110,        1,      126, 0x19162e3f, S=1,     1024, 0xc2f67c9f
0,        120,        120,        1,      119, 0x06602dec, S=1,     1024, 0xc2f67c9f
0,        130,        130,        1,      118, 0x8b083037, S=1,     1024, 0xc2f67c9f
0,        140,        140,        1,      115, 0xa8372c6d, S=1,     1024, 0xc2f67c9f
0,        150,        150,        1,      114, 0x8d0f2dbd, S=1,     1024, 0xc2f67c9f
0,        160,        160,        1,      129, 0xb5ab318d, S=1,     1024, 0xc2f67c9f
0,        170,        170,        1,      129, 0x278e34bd, S=1,     1024, 0xc2f67c9f
0,        180,        180,        1,      119, 0x408e3131, S=1,     1024, 0xc2f67c9f
0,        190,        190,        1,      121, 0x069a2c25, S=1,     1024, 0xc2f67c9f
0,        200,        200,        1,      127, 0x24793635, S=1,     1024, 0xc2f67c9f
0,        210,        210,        1,      110, 0xe30a29cc, S=1,     1024, 0xc2f67c9f
0,        220,        220,        1,      116, 0xf7b827f0, S=1,     1024, 0xc2f67c9f
0,        230,        230,        1,      118, 0xf5f62ff6, S=1,     1024, 0xc2f67c9f
0,        240,        240,        1,      115, 0xb7c92c27, S=1,     1024, 0xc2f67c9f
0,        250,        250,        1,      114, 0x0a642b7e, S=1,     1024, 0xc2f67c9f
0,        260,        260,        1,      114, 0x07b32c7c, S=1,     1024, 0xc2f67c9f
0,        270,        270,        1,      118, 0x1f4432b8, S=1,     1024, 0xc2f67c9f
0,        280,        280,        1,      144, 0xa81e3c75, S=1,     1024, 0xc2f67c9f
0,        290,        290,        1,      121, 0xacb828d6, S=1,     1024, 0xc2f67c9f
0,        300,        300,        1,      148, 0xb245426a, S=1,     1024, 0xc2f67c9f
0,        310,        310,        1,      124, 0x3d173009, S=1,     1024, 0xc2f67c9f
0,        320,        320,        1,      151, 0xa57c443d, S=1,     1024, 0xc2f67c9f
0,        330,        330,        1,      121, 0x93da2d00, S=1,     1024, 0xc2f67c9f
0,        340,        340,        1,      124, 0x1dd02f53, S=1,     1024, 0xc2f67c9f
0,        350,        350,        1,      117, 0xb0942d05, S=1,     1024, 0xc2f67c9f
0,        360,        360,        1,      117, 0xb5af292b, S=1,     1024, 0xc2f67c9f
0,        370,        370,        1,      116, 0x731a30ff, S=1,     1024, 0xc2f67c9f
0,        380,        380,        1,      123, 0x16342dde, S=1,     1024, 0xc2f67c9f
0,        390,        390,        1,      117, 0xef9e2f92, S=1,     1024, 0xc2f67c9f
0,        400,        400,        1,      110, 0x646e2a4a, S=1,     1024, 0xc2f67c9f
0,        410,        410,        1,      110, 0xe44f2be1, S=1,     1024, 0xc2f67c9f
0,        420,        420,        1,      108, 0x58f22c11, S=1,     1024, 0xc2f67c9f
0,        430,        430,        1,      112, 0x2c702d3e, S=1,     1024, 0xc2f67c9f
0,        440,        440,        1,      111, 0x7b412ab9, S=1,     1024, 0xc2f67c9f
0,        450,        450,        1,      112, 0xe95d2dfb, S=1,     1024, 0xc2f67c9f
0,        460,        460,        1,      109, 0x2baf2bde, S=1,     1024, 0xc2f67c9f
0,        470,        470,        1,      114, 0x3a772c6a, S=1,     1024, 0xc2f67c9f
0,        480,        480,        1,      110, 0xfe702831, S=1,     1024, 0xc2f67c9f
0,        490,        490,        1,      125, 0xa31f344b, S=1,     1024, 0xc2f67c9f
0,        500,        500,        1,      119, 0xbc31318d, S=1,     1024, 0xc2f67c9f
0,        510,        510,        1,      115, 0xc7b62b8f, S=1,     1024, 0xc2f67c9f
0,        520,        520,        1,      118, 0x7cf22dcb, S=1,     1024, 0xc2f67c9f
0,        530,        530,        1,      119, 0xe16c2f96, S=1,     1024, 0xc2f67c9f
0,        540,        540,        1,      119, 0x86d43604, S=1,     1024, 0xc2f67c9f
0,        550,        550,        1,      109, 0x22b72af1, S=1,     1024, 0xc2f67c9f
0,        560,        560,        1,      103, 0x12982731, S=1,     1024, 0xc2f67c9f
0,        570,        570,        1,      114, 0x6ef22e10, S=1,     1024, 0xc2f67c9f
0,        580,        580,        1,      109, 0x621b26dd, S=1,     1024, 0xc2f67c9f
0,        590,        590,        1,      110, 0xfe062836, S=1,     1024, 0xc2f67c9f
0,        600,        600,        1,      112, 0x4a8e2ce3, S=1,     1024, 0xc2f67c9f
0,        610,        610,        1,      111, 0xa7ae2865, S=1,     1024, 0xc2f67c9f
0,        620,        620,        1,      103, 0x80bc2b33, S=1,     1024, 0xc2f67c9f
0,        630,        630,        1,      114, 0xc2f92f3f, S=1,     1024, 0xc2f67c9f
0,        640,        640,        1,      108, 0x81332cdf, S=1,     1024, 0xc2f67c9f
0,        650,        650,        1,      121, 0x0d1133ad, S=1,     1024, 0xc2f67c9f
0,        660,        660,        1,      136, 0x2c0c3481, S=1,     1024, 0xc2f67c9f
0,        670,        670,        1,      108, 0x55222d1f, S=1,     1024, 0xc2f67c9f
0,        680,        680,        1,      125, 0x9cc536df, S=1,     1024, 0xc2f67c9f
0,        690,        690,        1,      114, 0x04602ae4, S=1,     1024, 0xc2f67c9f
0,        700,        700,        1,       99, 0xd58f291d, S=1,     1024, 0xc2f67c9f
0,        710,        710,        1,       98, 0xcb8f2807, S=1,     1024, 0xc2f67c9f
0,        720,        720,        1,      109, 0x7f292c9b, S=1,     1024, 0xc2f67c9f
0,        730,        730,        1,      106, 0x3daa297f, S=1,     1024, 0xc2f67c9f
0,        740,        740,        1,      100, 0xb7032b73, S=1,     1024, 0xc2f67c9f
0,        750,        750,        1,       88, 0xd56b218e, S=1,     1024, 0xc2f67c9f
0,        760,        760,        1,       93, 0xdcfd2353, S=1,     1024, 0xc2f67c9f
0,        770,        770,        1,      112, 0x35322b03, S=1,     1024, 0xc2f67c9f
0,        780,        780,        1,      112, 0x7c2b2d67, S=1,     1024, 0xc2f67c9f
0,        790,        790,        1,      204, 0xd02c5bd9, S=1,     1024, 0xc2f67c9f
0,        800,        800,        1,      204, 0x82055f0a, S=1,     1024, 0xc2f67c9f
0,        810,        810,        1,      115, 0x76472e9b, S=1,     1024, 0xc2f67c9f
0,        820,        820,        1,      110, 0x22b12abc, S=1,     1024, 0xc2f67c9f
0,        830,        830,        1,      116, 0x50a0318e, S=1,     1024, 0xc2f67c9f
0,        840,        840,        1,      115, 0x10632f57, S=1,     1024, 0xc2f67c9f
0,        850,        850,        1,      120, 0x9c5631e3, S=1,     1024, 0xc2f67c9f
0,        860,        860,        1,      114, 0x0e192ed8, S=1,     1024, 0xc2f67c9f
0,        870,        870,        1,      109, 0xdedb2a99, S=1,     1024, 0xc2f67c9f
0,        880,        880,        1,      105, 0x639c2cf5, S=1,     1024, 0xc2f67c9f
0,        890,        890,        1,      117, 0x4aff2afa, S=1,     1024, 0xc2f67c9f
0,        900,        900,        1,      103, 0x44842781, S=1,     1024, 0xc2f67c9f
0,        910,        910,        1,      147, 0x22493e48, S=1,     1024, 0xc2f67c9f
0,        920,        920,        1,      117, 0x3cb02d86, S=1,     1024, 0xc2f67c9f
0,        930,        930,        1,      111, 0x813d2e1f, S=1,     1024, 0xc2f67c9f
0,        940,        940,        1,       83, 0xb6961b02, S=1,     1024, 0xc2f67c9f
0,        950,        950,        1,      159, 0x5f2e43d0, S=1,     1024, 0xc2f67c9f
0,        960,        960,        1,      126, 0x56d42d1d, S=1,     1024, 0xc2f67c9f
0,        970,        970,        1,      164, 0xea6c464d, S=1,     1024, 0xc2f67c9f
0,        980,        980,        1,      133, 0x21113425, S=1,     1024, 0xc2f67c9f
0,        990,        990,        1,      125, 0xfc6e322e, S=1,     1024, 0xc2f67c9f
0,       1000,       1000,        1,      116, 0x226830da, S=1,     1024, 0xc2f67c9f
0,       1010,       1010,        1,      130, 0xa71a317d, S=1,     1024, 0xc2f67c9f
0,       1020,       1020,        1,      127, 0x5b5433af, S=1,     1024, 0xc2f67c9f
0,       1030,       1030,        1,      172, 0x0ed64b21, S=1,     1024, 0xc2f67c9f
0,       1040,       1040,        1,      142, 0x9733380f, S=1,     1024, 0xc2f67c9f
0,       1050,       1050,        1,      184, 0x358b533c, S=1,     1024, 0xc2f67c9f
0,       1060,       1060,        1,      155, 0x5304441c, S=1,     1024, 0xc2f67c9f
0,       1070,       1070,        1,      139, 0x15743a98, S=1,     1024, 0xc2f67c9f
0,       1080,       1080,        1,      129, 0xc5782f81, S=1,     1024, 0xc2f67c9f
0,       1090,       1090,        1,      144, 0x1ee637c8, S=1,     1024, 0xc2f67c9f
0,       1100,       1100,        1,      133, 0x69403297, S=1,     1024, 0xc2f67c9f
0,       1110,       1110,        1,      192, 0x128553a4, S=1,     1024, 0xc2f67c9f
0,       1120,       1120,        1,      159, 0xea783f5a, S=1,     1024, 0xc2f67c9f
0,       1130,       1130,        1,      201, 0xc04252a1, S=1,     1024, 0xc2f67c9f
0,       1140,       1140,        1,      161, 0xb56b44f6, S=1,     1024, 0xc2f67c9f
0,       1150,       1150,        1,      136, 0x402130e8, S=1,     1024, 0xc2f67c9f
0,       1160,       1160,        1,      117, 0x694c3490, S=1,     1024, 0xc2f67c9f
0,       1170,       1170,        1,      151, 0x96803b5d, S=1,     1024, 0xc2f67c9f
0,       1180,       1180,        1,      135, 0x9a9b399f, S=1,     1024, 0xc2f67c9f
0,       1190,       1190,        1,      147, 0x7e83348d, S=1,     1024, 0xc2f67c9f
0,       1200,       1200,        1,      135, 0x932e3720, S=1,     1024, 0xc2f67c9f
0,       1210,       1210,        1,      183, 0x822946e2, S=1,     1024, 0xc2f67c9f
0,       1220,       1220,        1,      116, 0x93652e25, S=1,     1024, 0xc2f67c9f
0,       1230,       1230,        1,      117, 0x77063135, S=1,     1024, 0xc2f67c9f
0,       1240,       1240,        1,      109, 0x12752965, S=1,     1024, 0xc2f67c9f
0,       1250,       1250,        1,      111, 0x8fd62b54, S=1,     1024, 0xc2f67c9f
0,       1260,       1260,        1,      188, 0x6c1850e5, S=1,     1024, 0xc2f67c9f
0,       1270,       1270,        1,      121, 0x15003168, S=1,     1024, 0xc2f67c9f
0,       1280,       1280,        1,      115, 0x93482f77, S=1,     1024, 0xc2f67c9f
0,       1290,       1290,        1,      120, 0x36552de5, S=1,     1024, 0xc2f67c9f
0,       1300,       1300,        1,      117, 0x74472f78, S=1,     1024, 0xc2f67c9f
0,       1310,       1310,        1,      188, 0xadac5400, S=1,     1024, 0xc2f67c9f
0,       1320,       1320,        1,      125, 0xccb83070, S=1,     1024, 0xc2f67c9f
0,       1330,       1330,        1,      118, 0x606e2d29, S=1,     1024, 0xc2f67c9f
0,       1340,       1340,        1,      130, 0x77eb3516, S=1,     1024, 0xc2f67c9f
0,       1350,       1350,        1,      120, 0x500f3045, S=1,     1024, 0xc2f67c9f
0,       1360,       1360,        1,      164, 0x729244f4, S=1,     1024, 0xc2f67c9f
0,       1370,       1370,        1,      234, 0xff2969ee, S=1,     1024, 0xc2f67c9f
0,       1380,       1380,        1,      207, 0xf9366155, S=1,     1024, 0xc2f67c9f
0,       1390,       1390,        1,      210, 0x31555d58, S=1,     1024, 0xc2f67c9f
0,       1400,       1400,        1,      118, 0x7f9a32bd, S=1,     1024, 0xc2f67c9f
0,       1410,       1410,        1,      120, 0xfba63099, S=1,     1024, 0xc2f67c9f
0,       1420,       1420,        1,      114, 0xcb382d23, S=1,     1024, 0xc2f67c9f
0,       1430,       1430,        1,      115, 0x10f32bad, S=1,     1024, 0xc2f67c9f
0,       1440,       1440,        1,      206, 0x405e630e, S=1,     1024, 0xc2f67c9f
0,       1450,       1450,        1,      216, 0xf6e6635f, S=1,     1024, 0xc2f67c9f
0,       1460,       1460,        1,      123, 0x43aa33b8, S=1,     1024, 0xc2f67c9f
0,       1470,       1470,        1,      121, 0x780d3018, S=1,     1024, 0xc2f67c9f
0,       1480,       1480,        1,      121, 0xdba92f73, S=1,     1024, 0xc2f67c9f
0,       1490,       1490,        1,      118, 0x35b32e26, S=1,     1024, 0xc2f67c9f
0,       1500,       1500,        1,      116, 0x79ff2c29, S=1,     1024, 0xc2f67c9f
0,       1510,       1510,        1,      110, 0xb0552ba1, S=1,     1024, 0xc2f67c9f
0,       1520,       1520,        1,      117, 0x08f62fd4, S=1,     1024, 0xc2f67c9f
0,       1530,       1530,        1,      112, 0x0dac2e9d, S=1,     1024, 0xc2f67c9f
0,       1540,       1540,        1,      142, 0x092138a5, S=1,     1024, 0xc2f67c9f
0,       1550,       1550,        1,      119, 0x752a2fc6, S=1,     1024, 0xc2f67c9f
0,       1560,       1560,        1,      105, 0xec5824cd, S=1,     1024, 0xc2f67c9f
0,       1570,       1570,        1,      115, 0xea282f22, S=1,     1024, 0xc2f67c9f
0,       1580,       1580,        1,      108, 0x60b72ece, S=1,     1024, 0xc2f67c9f
0,       1590,       1590,        1,      139, 0x6ec63b92, S=1,     1024, 0xc2f67c9f
0,       1600,       1600,        1,      216, 0x2c906371, S=1,     1024, 0xc2f67c9f
0,       1610,       1610,        1,      226, 0x77b1687d, S=1,     1024, 0xc2f67c9f
0,       1620,       1620,        1,      155, 0x8180455a, S=1,     1024, 0xc2f67c9f
0,       1630,       1630,        1,      121, 0x66092c73, S=1,     1024, 0xc2f67c9f
0,       1640,       1640,        1,      123, 0xf9f22cb9, S=1,     1024, 0xc2f67c9f
0,       1650,       1650,        1,      220, 0x65525fcb, S=1,     1024, 0xc2f67c9f
0,       1660,       1660,        1,      153, 0x4b9f414c, S=1,     1024, 0xc2f67c9f
0,       1670,       1670,        1,      120, 0x072e3379, S=1,     1024, 0xc2f67c9f
0,       1680,       1680,        1,      109, 0xe46a2b38, S=1,     1024, 0xc2f67c9f
0,       1690,       1690,        1,      118, 0xf0f12d62, S=1,     1024, 0xc2f67c9f
0,       1700,       1700,        1,      117, 0xcb9e2cbb, S=1,     1024, 0xc2f67c9f
0,       1710,       1710,        1,      137, 0x1ae83718, S=1,     1024, 0xc2f67c9f
0,       1720,       1720,        1,      161, 0x87364667, S=1,     1024, 0xc2f67c9f
